<svg xmlns="http://www.w3.org/2000/svg" width="480pt" height="290pt" viewBox="0 0 480 290" version="1.1" xmlns:xlink="http://www.w3.org/1999/xlink">
  <g id="surface2" transform="matrix(0.9228240055462303,0,0,0.9228240055462303,2.945062674450952,64.18065541209958)">
    <path style="stroke:none;fill-rule:evenodd;fill:rgb(15.294118%,51.764706%,76.470588%);fill-opacity:1" d="M 179.449219 107.351562 C 181.214844 116.785156 183.617188 124.683594 186.648438 131.050781 C 189.714844 137.417969 193.285156 142.550781 197.351562 146.449219 C 201.417969 150.382812 205.851562 153.398438 210.648438 155.5 C 215.484375 157.632812 220.535156 159.167969 225.800781 160.101562 C 231.101562 161.035156 236.5 161.683594 242 162.050781 C 247.464844 162.449219 252.917969 162.882812 258.351562 163.351562 C 263.785156 163.816406 269.035156 164.632812 274.101562 165.800781 C 279.167969 166.964844 283.933594 168.816406 288.398438 171.351562 C 292.867188 173.882812 296.898438 177.398438 300.5 181.898438 C 297.699219 173.832031 294.582031 167.148438 291.148438 161.851562 C 287.683594 156.515625 283.917969 152.214844 279.851562 148.949219 C 275.816406 145.683594 271.484375 143.101562 266.851562 141.199219 C 262.214844 139.300781 257.316406 137.75 252.148438 136.550781 C 246.984375 135.316406 241.582031 134.082031 235.949219 132.851562 C 230.285156 131.648438 224.417969 130.082031 218.351562 128.148438 C 212.25 126.214844 205.949219 123.617188 199.449219 120.351562 C 192.984375 117.050781 186.316406 112.714844 179.449219 107.351562 "/>
    <path style="stroke:none;fill-rule:evenodd;fill:rgb(29.411765%,66.274510%,85.490196%);fill-opacity:1" d="M 194.5 65.25 C 194.933594 74.183594 196.117188 81.765625 198.050781 88 C 199.949219 94.234375 202.449219 99.398438 205.550781 103.5 C 208.683594 107.632812 212.25 110.984375 216.25 113.550781 C 220.25 116.148438 224.550781 118.265625 229.148438 119.898438 C 233.785156 121.535156 238.550781 122.964844 243.449219 124.199219 C 248.382812 125.464844 253.332031 126.816406 258.300781 128.25 C 263.265625 129.683594 268.101562 131.5 272.800781 133.699219 C 277.535156 135.898438 281.964844 138.785156 286.101562 142.351562 C 290.265625 145.882812 294.015625 150.382812 297.351562 155.851562 C 296.214844 146.449219 294.367188 138.433594 291.800781 131.800781 C 289.234375 125.199219 286.117188 119.683594 282.449219 115.25 C 278.75 110.816406 274.648438 107.132812 270.148438 104.199219 C 265.617188 101.300781 260.816406 98.832031 255.75 96.800781 C 250.683594 94.800781 245.484375 92.917969 240.148438 91.148438 C 234.816406 89.351562 229.484375 87.382812 224.148438 85.25 C 218.851562 83.082031 213.683594 80.417969 208.648438 77.25 C 203.648438 74.082031 198.933594 70.082031 194.5 65.25 "/>
    <path style="stroke:none;fill-rule:evenodd;fill:rgb(47.450980%,75.686275%,90.196078%);fill-opacity:1" d="M 228.601562 30.699219 C 227.632812 38.601562 227.582031 45.417969 228.449219 51.148438 C 229.351562 56.882812 230.949219 61.765625 233.25 65.800781 C 235.550781 69.832031 238.351562 73.300781 241.648438 76.199219 C 244.949219 79.066406 248.535156 81.617188 252.398438 83.851562 C 256.265625 86.082031 260.214844 88.265625 264.25 90.398438 C 268.285156 92.5 272.199219 94.816406 276 97.351562 C 279.765625 99.851562 283.199219 102.816406 286.300781 106.25 C 289.367188 109.683594 291.898438 113.832031 293.898438 118.699219 C 293.734375 109.867188 292.765625 102.234375 291 95.800781 C 289.199219 89.398438 286.800781 83.898438 283.800781 79.300781 C 280.832031 74.734375 277.464844 70.785156 273.699219 67.449219 C 269.898438 64.117188 265.933594 61.101562 261.800781 58.398438 C 257.667969 55.734375 253.566406 53.082031 249.5 50.449219 C 245.433594 47.851562 241.601562 44.964844 238 41.800781 C 234.433594 38.667969 231.300781 34.964844 228.601562 30.699219 "/>
  </g>
  <g id="surface4">
    <text style="fill:rgb(39,132,195)" font-family="Kabel Bk BT" font-size="50" transform="matrix(1,0,0,1,26.5,228)" xml:space="preserve"><![CDATA[Suroor ]]></text>
    <text style="fill:rgb(39,132,195)" font-family="Kabel Bk BT" font-size="50" transform="matrix(1,0,0,1,292,228)" xml:space="preserve"><![CDATA[Fashions]]></text>
  </g>
</svg>