<?xml version="1.0" encoding="utf-8"?>
<!-- Generator: Adobe Illustrator 19.2.1, SVG Export Plug-In . SVG Version: 6.00 Build 0)  -->
<svg version="1.1" id="Layer_1" xmlns="http://www.w3.org/2000/svg" xmlns:xlink="http://www.w3.org/1999/xlink" x="0px" y="0px"
	 viewBox="0 0 429.4 147.2" style="enable-background:new 0 0 429.4 147.2;" xml:space="preserve">
<style type="text/css">
	.st0{fill:#2784C3;}
	.st1{fill:#4BA9DA;}
	.st2{fill:#79C1E6;}
	.st3{enable-background:new    ;}
</style>
<g id="surface2" transform="matrix(0.9228240055462303,0,0,0.9228240055462303,2.945062674450952,64.18065541209958)">
	<path class="st0" d="M150.7,7.1c1.8,9.4,4.2,17.3,7.2,23.7c3.1,6.4,6.6,11.5,10.7,15.4c4.1,3.9,8.5,6.9,13.3,9.1
		c4.8,2.1,9.9,3.7,15.2,4.6c5.3,0.9,10.7,1.6,16.2,1.9c5.5,0.4,10.9,0.8,16.4,1.3c5.4,0.5,10.7,1.3,15.8,2.4c5.1,1.2,9.8,3,14.3,5.6
		c4.5,2.5,8.5,6,12.1,10.5c-2.8-8.1-5.9-14.8-9.4-20c-3.5-5.3-7.2-9.6-11.3-12.9c-4-3.3-8.4-5.8-13-7.8c-4.6-1.9-9.5-3.4-14.7-4.6
		c-5.2-1.2-10.6-2.5-16.2-3.7c-5.7-1.2-11.5-2.8-17.6-4.7c-6.1-1.9-12.4-4.5-18.9-7.8S157.6,12.5,150.7,7.1"/>
	<path class="st1" d="M165.8-35c0.4,8.9,1.6,16.5,3.6,22.8c1.9,6.2,4.4,11.4,7.5,15.5s6.7,7.5,10.7,10.1s8.3,4.7,12.9,6.3
		c4.6,1.6,9.4,3.1,14.3,4.3c4.9,1.3,9.9,2.6,14.9,4.1c5,1.4,9.8,3.3,14.5,5.4c4.7,2.2,9.2,5.1,13.3,8.7c4.2,3.5,7.9,8,11.3,13.5
		c-1.1-9.4-3-17.4-5.6-24.1c-2.6-6.6-5.7-12.1-9.4-16.6c-3.7-4.4-7.8-8.1-12.3-11.1c-4.5-2.9-9.3-5.4-14.4-7.4
		c-5.1-2-10.3-3.9-15.6-5.7s-10.7-3.8-16-5.9c-5.3-2.2-10.5-4.8-15.5-8C174.9-26.2,170.2-30.2,165.8-35"/>
	<path class="st2" d="M199.9-69.5c-1,7.9-1,14.7-0.2,20.4c0.9,5.7,2.5,10.6,4.8,14.7c2.3,4,5.1,7.5,8.4,10.4
		c3.3,2.9,6.9,5.4,10.8,7.7c3.9,2.2,7.8,4.4,11.9,6.5c4,2.1,7.9,4.4,11.8,7c3.8,2.5,7.2,5.5,10.3,8.9c3.1,3.4,5.6,7.6,7.6,12.4
		C265,9.6,264,2,262.3-4.4c-1.8-6.4-4.2-11.9-7.2-16.5c-3-4.6-6.3-8.5-10.1-11.9c-3.8-3.3-7.8-6.3-11.9-9.1
		c-4.1-2.7-8.2-5.3-12.3-7.9c-4.1-2.6-7.9-5.5-11.5-8.6C205.7-61.6,202.6-65.3,199.9-69.5"/>
</g>
<g id="surface4">
	<g class="st3">
		<path class="st0" d="M4,128.2c1,1.6,2.2,2.9,3.6,3.7c1.4,0.8,2.9,1.2,4.7,1.2c2.2,0,4-0.6,5.5-1.9s2.2-2.9,2.2-4.8
			c0-3.2-2.7-5.7-8.2-7.3c-0.6-0.2-1-0.3-1.3-0.4c-2.8-0.8-4.9-2-6.2-3.5c-1.3-1.5-2-3.3-2-5.6c0-2.6,1-4.8,2.9-6.6
			c1.9-1.8,4.4-2.7,7.3-2.7c1.8,0,3.4,0.3,4.9,1c1.4,0.6,2.9,1.7,4.4,3.1l-2,2.3c-1.3-1.3-2.6-2.1-3.7-2.7c-1.1-0.5-2.4-0.8-3.7-0.8
			c-1.9,0-3.6,0.6-4.9,1.9c-1.3,1.2-2,2.8-2,4.5c0,1.1,0.3,2.1,0.8,2.9c0.5,0.8,1.3,1.5,2.4,2.1c0.8,0.4,2.2,1,4.3,1.6
			c1.1,0.3,2,0.6,2.6,0.8c2.5,0.9,4.4,2.1,5.7,3.6s1.9,3.3,1.9,5.5c0,2.8-1,5.2-3.1,7.1s-4.7,2.9-7.8,2.9c-2.2,0-4.2-0.5-6-1.6
			c-1.8-1.1-3.4-2.6-4.6-4.5L4,128.2z"/>
		<path class="st0" d="M44,131.5c-1,1.5-2.2,2.7-3.6,3.4c-1.4,0.8-2.9,1.1-4.5,1.1c-2.8,0-4.9-0.8-6.5-2.5c-1.5-1.7-2.3-4-2.3-7.1
			v-15.9l2.8-0.3v14.9c0,2.9,0.5,5.1,1.6,6.5c1.1,1.4,2.7,2.1,4.9,2.1c2,0,3.8-0.7,5.3-2.2c1.5-1.5,2.2-3.3,2.2-5.4v-15.6l2.8-0.3
			v25.2l-2.8,0.3V131.5z"/>
		<path class="st0" d="M52,135.8v-25.2l2.8-0.3v5.4c1-2,2.2-3.4,3.7-4.4c1.5-1,3.1-1.5,5.1-1.5h0.7l-1.1,2.8
			c-2.8,0.3-4.9,1.5-6.3,3.7c-1.4,2.2-2,5.5-2,9.8v9.4L52,135.8z"/>
		<path class="st0" d="M64.4,123c0-3.7,1.3-6.8,3.8-9.3c2.5-2.5,5.7-3.7,9.4-3.7c3.7,0,6.9,1.2,9.4,3.7c2.5,2.5,3.8,5.6,3.8,9.3
			c0,3.7-1.3,6.8-3.8,9.3c-2.5,2.5-5.6,3.7-9.4,3.7c-3.7,0-6.9-1.3-9.4-3.8C65.7,129.8,64.4,126.7,64.4,123z M67.3,123
			c0,2.8,1,5.3,3,7.3c2,2,4.5,3,7.3,3c2.8,0,5.3-1,7.3-3c2-2,3-4.4,3-7.3c0-2.8-1-5.3-3-7.3c-2-2-4.4-3-7.3-3c-2.8,0-5.3,1-7.3,3
			C68.3,117.7,67.3,120.1,67.3,123z"/>
		<path class="st0" d="M93.5,123c0-3.7,1.3-6.8,3.8-9.3c2.5-2.5,5.7-3.7,9.4-3.7c3.7,0,6.9,1.2,9.4,3.7c2.5,2.5,3.8,5.6,3.8,9.3
			c0,3.7-1.3,6.8-3.8,9.3c-2.5,2.5-5.6,3.7-9.4,3.7c-3.7,0-6.9-1.3-9.4-3.8C94.7,129.8,93.5,126.7,93.5,123z M96.3,123
			c0,2.8,1,5.3,3,7.3c2,2,4.5,3,7.3,3c2.8,0,5.3-1,7.3-3c2-2,3-4.4,3-7.3c0-2.8-1-5.3-3-7.3c-2-2-4.4-3-7.3-3c-2.8,0-5.3,1-7.3,3
			C97.3,117.7,96.3,120.1,96.3,123z"/>
		<path class="st0" d="M123.8,135.8v-25.2l2.8-0.3v5.4c1-2,2.2-3.4,3.7-4.4c1.5-1,3.1-1.5,5.1-1.5h0.7l-1.1,2.8
			c-2.8,0.3-4.9,1.5-6.3,3.7c-1.4,2.2-2,5.5-2,9.8v9.4L123.8,135.8z"/>
	</g>
	<g class="st3">
		<path class="st0" d="M268.5,135.8v-34.6h14.5l0.7,3h-12.2v12.6h9.5v2.9h-9.5v15.8L268.5,135.8z"/>
		<path class="st0" d="M298.9,133c-0.9,1-1.9,1.8-3,2.3s-2.3,0.8-3.7,0.8c-2.5,0-4.7-0.9-6.5-2.7c-1.8-1.8-2.7-3.9-2.7-6.5
			c0-2.5,0.9-4.7,2.7-6.5c1.8-1.8,3.9-2.7,6.5-2.7c1.3,0,2.5,0.2,3.6,0.7c1.2,0.5,2.2,1.2,3.1,2.2v-3.1c0-1.7-0.4-3-1.3-3.8
			c-0.9-0.8-2.2-1.2-4-1.2c-1.1,0-2.2,0.2-3.5,0.5c-1.3,0.3-2.7,0.8-4.3,1.5l1.1-3.2c1.2-0.4,2.4-0.7,3.6-1c1.2-0.2,2.3-0.3,3.4-0.3
			c2.7,0,4.7,0.6,6,1.9s1.9,3.3,1.9,6v17.7l-2.8,0.6V133z M285.9,126.9c0,1.8,0.6,3.4,1.9,4.6c1.2,1.2,2.8,1.8,4.7,1.8
			s3.4-0.6,4.6-1.8c1.2-1.2,1.7-2.7,1.7-4.7c0-1.9-0.6-3.5-1.7-4.7c-1.2-1.2-2.7-1.8-4.6-1.8c-1.9,0-3.5,0.6-4.8,1.8
			C286.6,123.5,285.9,125,285.9,126.9z"/>
		<path class="st0" d="M304.9,132.3l2.1-2c0.9,1,1.9,1.8,3,2.3c1.1,0.5,2.2,0.8,3.5,0.8c1.5,0,2.8-0.4,3.8-1.3c1-0.9,1.5-2,1.5-3.3
			c0-1.2-0.4-2.2-1.1-2.9c-0.7-0.7-2-1.3-3.8-1.7c-3.1-0.8-5.3-1.7-6.4-2.8c-1.1-1.1-1.7-2.5-1.7-4.4c0-2,0.8-3.7,2.3-5
			c1.5-1.4,3.5-2,5.9-2c1.4,0,2.8,0.2,4,0.7c1.3,0.5,2.4,1.2,3.5,2.1l-1.8,2.3c-0.9-0.8-1.9-1.4-2.9-1.9c-1-0.4-1.9-0.6-2.9-0.6
			c-1.6,0-2.8,0.4-3.8,1.2c-1,0.8-1.4,1.8-1.4,3.1c0,2,1.7,3.4,5.2,4.2c0.7,0.2,1.3,0.3,1.6,0.4c2.1,0.6,3.7,1.5,4.8,2.6
			c1.1,1.2,1.6,2.6,1.6,4.3c0,2.2-0.8,4.1-2.4,5.6s-3.6,2.2-6.1,2.2c-1.7,0-3.3-0.3-4.7-1C307.2,134.6,306,133.6,304.9,132.3z"/>
		<path class="st0" d="M325.8,135.8v-35.3l2.8-0.3v14.3c1.1-1.5,2.3-2.7,3.6-3.4c1.4-0.8,2.9-1.1,4.5-1.1c2.8,0,4.9,0.8,6.4,2.5
			c1.5,1.7,2.3,4,2.3,7.1v15.9l-2.7,0.3v-14.9c0-2.9-0.6-5-1.7-6.5c-1.1-1.4-2.8-2.2-5-2.2c-2,0-3.7,0.7-5.2,2.2
			c-1.5,1.5-2.2,3.3-2.2,5.4v15.6L325.8,135.8z"/>
		<path class="st0" d="M350.1,102.7l2.1-2.6l2.1,2.3l-2.1,2.6L350.1,102.7z M350.8,135.8v-25.3l2.9-0.3v25.2L350.8,135.8z"/>
		<path class="st0" d="M358,123c0-3.7,1.3-6.8,3.8-9.3c2.5-2.5,5.7-3.7,9.4-3.7c3.7,0,6.9,1.2,9.4,3.7c2.5,2.5,3.8,5.6,3.8,9.3
			c0,3.7-1.3,6.8-3.8,9.3c-2.5,2.5-5.6,3.7-9.4,3.7c-3.7,0-6.9-1.3-9.4-3.8C359.2,129.8,358,126.7,358,123z M360.8,123
			c0,2.8,1,5.3,3,7.3c2,2,4.5,3,7.3,3c2.8,0,5.3-1,7.3-3c2-2,3-4.4,3-7.3c0-2.8-1-5.3-3-7.3c-2-2-4.4-3-7.3-3c-2.8,0-5.3,1-7.3,3
			C361.8,117.7,360.8,120.1,360.8,123z"/>
		<path class="st0" d="M388.2,135.8v-25.2l2.8-0.3v4.2c1.1-1.5,2.3-2.7,3.6-3.4c1.4-0.8,2.9-1.1,4.5-1.1c2.8,0,4.9,0.8,6.4,2.5
			c1.5,1.7,2.3,4,2.3,7.1v15.9l-2.7,0.3v-14.9c0-2.9-0.6-5-1.7-6.5c-1.1-1.4-2.8-2.2-5-2.2c-2,0-3.7,0.7-5.2,2.2
			c-1.5,1.5-2.2,3.3-2.2,5.4v15.6L388.2,135.8z"/>
		<path class="st0" d="M411,132.3l2.1-2c0.9,1,1.9,1.8,3,2.3c1.1,0.5,2.2,0.8,3.5,0.8c1.5,0,2.8-0.4,3.8-1.3c1-0.9,1.5-2,1.5-3.3
			c0-1.2-0.4-2.2-1.1-2.9c-0.7-0.7-2-1.3-3.8-1.7c-3.1-0.8-5.3-1.7-6.4-2.8c-1.1-1.1-1.7-2.5-1.7-4.4c0-2,0.8-3.7,2.3-5
			c1.5-1.4,3.5-2,5.9-2c1.4,0,2.8,0.2,4,0.7c1.3,0.5,2.4,1.2,3.5,2.1l-1.8,2.3c-0.9-0.8-1.9-1.4-2.9-1.9c-1-0.4-1.9-0.6-2.9-0.6
			c-1.6,0-2.8,0.4-3.8,1.2c-1,0.8-1.4,1.8-1.4,3.1c0,2,1.7,3.4,5.2,4.2c0.7,0.2,1.3,0.3,1.6,0.4c2.1,0.6,3.7,1.5,4.8,2.6
			c1.1,1.2,1.6,2.6,1.6,4.3c0,2.2-0.8,4.1-2.4,5.6s-3.6,2.2-6.1,2.2c-1.7,0-3.3-0.3-4.7-1C413.2,134.6,412,133.6,411,132.3z"/>
	</g>
</g>
</svg>
